<svg width="136" height="15" viewBox="0 0 136 15" fill="none" xmlns="http://www.w3.org/2000/svg">
<rect x="0.25" y="0.25" width="135.5" height="14.5" rx="4.75" stroke="#E0E0E0" stroke-width="0.5"/>
<path d="M13.1917 6.432C13.341 6.17067 13.5597 5.95733 13.8477 5.792C14.1357 5.62667 14.4637 5.544 14.8317 5.544C15.2263 5.544 15.581 5.63733 15.8957 5.824C16.2103 6.01067 16.4583 6.27467 16.6397 6.616C16.821 6.952 16.9117 7.344 16.9117 7.792C16.9117 8.23467 16.821 8.62933 16.6397 8.976C16.4583 9.32267 16.2077 9.592 15.8877 9.784C15.573 9.976 15.221 10.072 14.8317 10.072C14.453 10.072 14.1197 9.98933 13.8317 9.824C13.549 9.65867 13.3357 9.448 13.1917 9.192V10H12.4637V4.08H13.1917V6.432ZM16.1677 7.792C16.1677 7.46133 16.101 7.17333 15.9677 6.928C15.8343 6.68267 15.653 6.496 15.4237 6.368C15.1997 6.24 14.9517 6.176 14.6797 6.176C14.413 6.176 14.165 6.24267 13.9357 6.376C13.7117 6.504 13.5303 6.69333 13.3917 6.944C13.2583 7.18933 13.1917 7.47467 13.1917 7.8C13.1917 8.13067 13.2583 8.42133 13.3917 8.672C13.5303 8.91733 13.7117 9.10667 13.9357 9.24C14.165 9.368 14.413 9.432 14.6797 9.432C14.9517 9.432 15.1997 9.368 15.4237 9.24C15.653 9.10667 15.8343 8.91733 15.9677 8.672C16.101 8.42133 16.1677 8.128 16.1677 7.792ZM18.5979 6.328C18.7259 6.07733 18.9072 5.88267 19.1419 5.744C19.3819 5.60533 19.6726 5.536 20.0139 5.536V6.288H19.8219C19.0059 6.288 18.5979 6.73067 18.5979 7.616V10H17.8699V5.616H18.5979V6.328ZM20.5823 7.792C20.5823 7.344 20.6729 6.952 20.8543 6.616C21.0356 6.27467 21.2836 6.01067 21.5983 5.824C21.9183 5.63733 22.2729 5.544 22.6623 5.544C23.0463 5.544 23.3796 5.62667 23.6623 5.792C23.9449 5.95733 24.1556 6.16533 24.2943 6.416V5.616H25.0303V10H24.2943V9.184C24.1503 9.44 23.9343 9.65333 23.6463 9.824C23.3636 9.98933 23.0329 10.072 22.6543 10.072C22.2649 10.072 21.9129 9.976 21.5983 9.784C21.2836 9.592 21.0356 9.32267 20.8543 8.976C20.6729 8.62933 20.5823 8.23467 20.5823 7.792ZM24.2943 7.8C24.2943 7.46933 24.2276 7.18133 24.0943 6.936C23.9609 6.69067 23.7796 6.504 23.5503 6.376C23.3263 6.24267 23.0783 6.176 22.8063 6.176C22.5343 6.176 22.2863 6.24 22.0623 6.368C21.8383 6.496 21.6596 6.68267 21.5263 6.928C21.3929 7.17333 21.3263 7.46133 21.3263 7.792C21.3263 8.128 21.3929 8.42133 21.5263 8.672C21.6596 8.91733 21.8383 9.10667 22.0623 9.24C22.2863 9.368 22.5343 9.432 22.8063 9.432C23.0783 9.432 23.3263 9.368 23.5503 9.24C23.7796 9.10667 23.9609 8.91733 24.0943 8.672C24.2276 8.42133 24.2943 8.13067 24.2943 7.8ZM28.3965 5.536C28.9299 5.536 29.3619 5.69867 29.6925 6.024C30.0232 6.344 30.1885 6.808 30.1885 7.416V10H29.4685V7.52C29.4685 7.08267 29.3592 6.74933 29.1405 6.52C28.9219 6.28533 28.6232 6.168 28.2445 6.168C27.8605 6.168 27.5539 6.288 27.3245 6.528C27.1005 6.768 26.9885 7.11733 26.9885 7.576V10H26.2605V5.616H26.9885V6.24C27.1325 6.016 27.3272 5.84267 27.5725 5.72C27.8232 5.59733 28.0979 5.536 28.3965 5.536ZM31.1057 7.792C31.1057 7.344 31.1964 6.952 31.3777 6.616C31.5591 6.27467 31.8071 6.01067 32.1217 5.824C32.4417 5.63733 32.7991 5.544 33.1937 5.544C33.5351 5.544 33.8524 5.624 34.1457 5.784C34.4391 5.93867 34.6631 6.144 34.8177 6.4V4.08H35.5537V10H34.8177V9.176C34.6737 9.43733 34.4604 9.65333 34.1777 9.824C33.8951 9.98933 33.5644 10.072 33.1857 10.072C32.7964 10.072 32.4417 9.976 32.1217 9.784C31.8071 9.592 31.5591 9.32267 31.3777 8.976C31.1964 8.62933 31.1057 8.23467 31.1057 7.792ZM34.8177 7.8C34.8177 7.46933 34.7511 7.18133 34.6177 6.936C34.4844 6.69067 34.3031 6.504 34.0737 6.376C33.8497 6.24267 33.6017 6.176 33.3297 6.176C33.0577 6.176 32.8097 6.24 32.5857 6.368C32.3617 6.496 32.1831 6.68267 32.0497 6.928C31.9164 7.17333 31.8497 7.46133 31.8497 7.792C31.8497 8.128 31.9164 8.42133 32.0497 8.672C32.1831 8.91733 32.3617 9.10667 32.5857 9.24C32.8097 9.368 33.0577 9.432 33.3297 9.432C33.6017 9.432 33.8497 9.368 34.0737 9.24C34.3031 9.10667 34.4844 8.91733 34.6177 8.672C34.7511 8.42133 34.8177 8.13067 34.8177 7.8ZM38.592 5.544C38.9706 5.544 39.3013 5.62667 39.584 5.792C39.872 5.95733 40.0853 6.16533 40.224 6.416V5.616H40.96V10.096C40.96 10.496 40.8746 10.8507 40.704 11.16C40.5333 11.4747 40.288 11.72 39.968 11.896C39.6533 12.072 39.2853 12.16 38.864 12.16C38.288 12.16 37.808 12.024 37.424 11.752C37.04 11.48 36.8133 11.1093 36.744 10.64H37.464C37.544 10.9067 37.7093 11.12 37.96 11.28C38.2106 11.4453 38.512 11.528 38.864 11.528C39.264 11.528 39.5893 11.4027 39.84 11.152C40.096 10.9013 40.224 10.5493 40.224 10.096V9.176C40.08 9.432 39.8666 9.64533 39.584 9.816C39.3013 9.98667 38.9706 10.072 38.592 10.072C38.2026 10.072 37.848 9.976 37.528 9.784C37.2133 9.592 36.9653 9.32267 36.784 8.976C36.6026 8.62933 36.512 8.23467 36.512 7.792C36.512 7.344 36.6026 6.952 36.784 6.616C36.9653 6.27467 37.2133 6.01067 37.528 5.824C37.848 5.63733 38.2026 5.544 38.592 5.544ZM40.224 7.8C40.224 7.46933 40.1573 7.18133 40.024 6.936C39.8906 6.69067 39.7093 6.504 39.48 6.376C39.256 6.24267 39.008 6.176 38.736 6.176C38.464 6.176 38.216 6.24 37.992 6.368C37.768 6.496 37.5893 6.68267 37.456 6.928C37.3226 7.17333 37.256 7.46133 37.256 7.792C37.256 8.128 37.3226 8.42133 37.456 8.672C37.5893 8.91733 37.768 9.10667 37.992 9.24C38.216 9.368 38.464 9.432 38.736 9.432C39.008 9.432 39.256 9.368 39.48 9.24C39.7093 9.10667 39.8906 8.91733 40.024 8.672C40.1573 8.42133 40.224 8.13067 40.224 7.8ZM42.9182 6.424C43.0622 6.17333 43.2756 5.96533 43.5582 5.8C43.8462 5.62933 44.1796 5.544 44.5582 5.544C44.9476 5.544 45.2996 5.63733 45.6142 5.824C45.9342 6.01067 46.1849 6.27467 46.3662 6.616C46.5476 6.952 46.6382 7.344 46.6382 7.792C46.6382 8.23467 46.5476 8.62933 46.3662 8.976C46.1849 9.32267 45.9342 9.592 45.6142 9.784C45.2996 9.976 44.9476 10.072 44.5582 10.072C44.1849 10.072 43.8542 9.98933 43.5662 9.824C43.2836 9.65333 43.0676 9.44267 42.9182 9.192V12.08H42.1902V5.616H42.9182V6.424ZM45.8942 7.792C45.8942 7.46133 45.8276 7.17333 45.6942 6.928C45.5609 6.68267 45.3796 6.496 45.1502 6.368C44.9262 6.24 44.6782 6.176 44.4062 6.176C44.1396 6.176 43.8916 6.24267 43.6622 6.376C43.4382 6.504 43.2569 6.69333 43.1182 6.944C42.9849 7.18933 42.9182 7.47467 42.9182 7.8C42.9182 8.13067 42.9849 8.42133 43.1182 8.672C43.2569 8.91733 43.4382 9.10667 43.6622 9.24C43.8916 9.368 44.1396 9.432 44.4062 9.432C44.6782 9.432 44.9262 9.368 45.1502 9.24C45.3796 9.10667 45.5609 8.91733 45.6942 8.672C45.8276 8.42133 45.8942 8.128 45.8942 7.792ZM48.4845 6.216V8.8C48.4845 9.01333 48.5298 9.16533 48.6205 9.256C48.7111 9.34133 48.8685 9.384 49.0925 9.384H49.6285V10H48.9725C48.5671 10 48.2631 9.90667 48.0605 9.72C47.8578 9.53333 47.7565 9.22667 47.7565 8.8V6.216H47.1885V5.616H47.7565V4.512H48.4845V5.616H49.6285V6.216H48.4845ZM50.7425 10.048C50.6039 10.048 50.4865 10 50.3905 9.904C50.2945 9.808 50.2465 9.69067 50.2465 9.552C50.2465 9.41333 50.2945 9.296 50.3905 9.2C50.4865 9.104 50.6039 9.056 50.7425 9.056C50.8759 9.056 50.9879 9.104 51.0785 9.2C51.1745 9.296 51.2225 9.41333 51.2225 9.552C51.2225 9.69067 51.1745 9.808 51.0785 9.904C50.9879 10 50.8759 10.048 50.7425 10.048ZM53.7422 10.072C53.4062 10.072 53.1049 10.016 52.8382 9.904C52.5716 9.78667 52.3609 9.62667 52.2062 9.424C52.0516 9.216 51.9662 8.97867 51.9502 8.712H52.7022C52.7236 8.93067 52.8249 9.10933 53.0062 9.248C53.1929 9.38667 53.4356 9.456 53.7342 9.456C54.0116 9.456 54.2302 9.39467 54.3902 9.272C54.5502 9.14933 54.6302 8.99467 54.6302 8.808C54.6302 8.616 54.5449 8.47467 54.3742 8.384C54.2036 8.288 53.9396 8.19467 53.5822 8.104C53.2569 8.01867 52.9902 7.93333 52.7822 7.848C52.5796 7.75733 52.4036 7.62667 52.2542 7.456C52.1102 7.28 52.0382 7.05067 52.0382 6.768C52.0382 6.544 52.1049 6.33867 52.2382 6.152C52.3716 5.96533 52.5609 5.81867 52.8062 5.712C53.0516 5.6 53.3316 5.544 53.6462 5.544C54.1316 5.544 54.5236 5.66667 54.8222 5.912C55.1209 6.15733 55.2809 6.49333 55.3022 6.92H54.5742C54.5582 6.69067 54.4649 6.50667 54.2942 6.368C54.1289 6.22933 53.9049 6.16 53.6222 6.16C53.3609 6.16 53.1529 6.216 52.9982 6.328C52.8436 6.44 52.7662 6.58667 52.7662 6.768C52.7662 6.912 52.8116 7.032 52.9022 7.128C52.9982 7.21867 53.1156 7.29333 53.2542 7.352C53.3982 7.40533 53.5956 7.46667 53.8462 7.536C54.1609 7.62133 54.4169 7.70667 54.6142 7.792C54.8116 7.872 54.9796 7.99467 55.1182 8.16C55.2622 8.32533 55.3369 8.54133 55.3422 8.808C55.3422 9.048 55.2756 9.264 55.1422 9.456C55.0089 9.648 54.8196 9.8 54.5742 9.912C54.3342 10.0187 54.0569 10.072 53.7422 10.072ZM60.2579 5.616V10H59.5299V9.352C59.3912 9.576 59.1966 9.752 58.9459 9.88C58.7006 10.0027 58.4286 10.064 58.1299 10.064C57.7886 10.064 57.4819 9.99467 57.2099 9.856C56.9379 9.712 56.7219 9.49867 56.5619 9.216C56.4072 8.93333 56.3299 8.58933 56.3299 8.184V5.616H57.0499V8.088C57.0499 8.52 57.1592 8.85333 57.3779 9.088C57.5966 9.31733 57.8952 9.432 58.2739 9.432C58.6632 9.432 58.9699 9.312 59.1939 9.072C59.4179 8.832 59.5299 8.48267 59.5299 8.024V5.616H60.2579ZM62.2151 6.424C62.3591 6.17333 62.5724 5.96533 62.8551 5.8C63.1431 5.62933 63.4764 5.544 63.8551 5.544C64.2444 5.544 64.5964 5.63733 64.9111 5.824C65.2311 6.01067 65.4818 6.27467 65.6631 6.616C65.8444 6.952 65.9351 7.344 65.9351 7.792C65.9351 8.23467 65.8444 8.62933 65.6631 8.976C65.4818 9.32267 65.2311 9.592 64.9111 9.784C64.5964 9.976 64.2444 10.072 63.8551 10.072C63.4818 10.072 63.1511 9.98933 62.8631 9.824C62.5804 9.65333 62.3644 9.44267 62.2151 9.192V12.08H61.4871V5.616H62.2151V6.424ZM65.1911 7.792C65.1911 7.46133 65.1244 7.17333 64.9911 6.928C64.8578 6.68267 64.6764 6.496 64.4471 6.368C64.2231 6.24 63.9751 6.176 63.7031 6.176C63.4364 6.176 63.1884 6.24267 62.9591 6.376C62.7351 6.504 62.5538 6.69333 62.4151 6.944C62.2818 7.18933 62.2151 7.47467 62.2151 7.8C62.2151 8.13067 62.2818 8.42133 62.4151 8.672C62.5538 8.91733 62.7351 9.10667 62.9591 9.24C63.1884 9.368 63.4364 9.432 63.7031 9.432C63.9751 9.432 64.2231 9.368 64.4471 9.24C64.6764 9.10667 64.8578 8.91733 64.9911 8.672C65.1244 8.42133 65.1911 8.128 65.1911 7.792ZM70.8933 7.64C70.8933 7.77867 70.8853 7.92533 70.8693 8.08H67.3653C67.392 8.512 67.5387 8.85067 67.8053 9.096C68.0773 9.336 68.4053 9.456 68.7893 9.456C69.104 9.456 69.3653 9.384 69.5733 9.24C69.7867 9.09067 69.936 8.89333 70.0213 8.648H70.8053C70.688 9.06933 70.4533 9.41333 70.1013 9.68C69.7493 9.94133 69.312 10.072 68.7893 10.072C68.3733 10.072 68 9.97867 67.6693 9.792C67.344 9.60533 67.088 9.34133 66.9013 9C66.7147 8.65333 66.6213 8.25333 66.6213 7.8C66.6213 7.34667 66.712 6.94933 66.8933 6.608C67.0747 6.26667 67.328 6.00533 67.6533 5.824C67.984 5.63733 68.3627 5.544 68.7893 5.544C69.2053 5.544 69.5733 5.63467 69.8933 5.816C70.2133 5.99733 70.4587 6.248 70.6293 6.568C70.8053 6.88267 70.8933 7.24 70.8933 7.64ZM70.1413 7.488C70.1413 7.21067 70.08 6.97333 69.9573 6.776C69.8347 6.57333 69.6667 6.42133 69.4533 6.32C69.2453 6.21333 69.0133 6.16 68.7573 6.16C68.3893 6.16 68.0747 6.27733 67.8133 6.512C67.5573 6.74667 67.4107 7.072 67.3733 7.488H70.1413ZM72.5823 6.328C72.7103 6.07733 72.8916 5.88267 73.1263 5.744C73.3663 5.60533 73.6569 5.536 73.9983 5.536V6.288H73.8063C72.9903 6.288 72.5823 6.73067 72.5823 7.616V10H71.8543V5.616H72.5823V6.328ZM75.5667 6.328C75.6947 6.07733 75.876 5.88267 76.1107 5.744C76.3507 5.60533 76.6413 5.536 76.9827 5.536V6.288H76.7907C75.9747 6.288 75.5667 6.73067 75.5667 7.616V10H74.8387V5.616H75.5667V6.328ZM81.823 7.64C81.823 7.77867 81.815 7.92533 81.799 8.08H78.295C78.3217 8.512 78.4684 8.85067 78.735 9.096C79.007 9.336 79.335 9.456 79.719 9.456C80.0337 9.456 80.295 9.384 80.503 9.24C80.7164 9.09067 80.8657 8.89333 80.951 8.648H81.735C81.6177 9.06933 81.383 9.41333 81.031 9.68C80.679 9.94133 80.2417 10.072 79.719 10.072C79.303 10.072 78.9297 9.97867 78.599 9.792C78.2737 9.60533 78.0177 9.34133 77.831 9C77.6444 8.65333 77.551 8.25333 77.551 7.8C77.551 7.34667 77.6417 6.94933 77.823 6.608C78.0044 6.26667 78.2577 6.00533 78.583 5.824C78.9137 5.63733 79.2924 5.544 79.719 5.544C80.135 5.544 80.503 5.63467 80.823 5.816C81.143 5.99733 81.3884 6.248 81.559 6.568C81.735 6.88267 81.823 7.24 81.823 7.64ZM81.071 7.488C81.071 7.21067 81.0097 6.97333 80.887 6.776C80.7644 6.57333 80.5964 6.42133 80.383 6.32C80.175 6.21333 79.943 6.16 79.687 6.16C79.319 6.16 79.0044 6.27733 78.743 6.512C78.487 6.74667 78.3404 7.072 78.303 7.488H81.071ZM82.512 7.792C82.512 7.344 82.6026 6.952 82.784 6.616C82.9653 6.27467 83.2133 6.01067 83.528 5.824C83.848 5.63733 84.2026 5.544 84.592 5.544C84.976 5.544 85.3093 5.62667 85.592 5.792C85.8746 5.95733 86.0853 6.16533 86.224 6.416V5.616H86.96V10H86.224V9.184C86.08 9.44 85.864 9.65333 85.576 9.824C85.2933 9.98933 84.9626 10.072 84.584 10.072C84.1946 10.072 83.8426 9.976 83.528 9.784C83.2133 9.592 82.9653 9.32267 82.784 8.976C82.6026 8.62933 82.512 8.23467 82.512 7.792ZM86.224 7.8C86.224 7.46933 86.1573 7.18133 86.024 6.936C85.8906 6.69067 85.7093 6.504 85.48 6.376C85.256 6.24267 85.008 6.176 84.736 6.176C84.464 6.176 84.216 6.24 83.992 6.368C83.768 6.496 83.5893 6.68267 83.456 6.928C83.3226 7.17333 83.256 7.46133 83.256 7.792C83.256 8.128 83.3226 8.42133 83.456 8.672C83.5893 8.91733 83.768 9.10667 83.992 9.24C84.216 9.368 84.464 9.432 84.736 9.432C85.008 9.432 85.256 9.368 85.48 9.24C85.7093 9.10667 85.8906 8.91733 86.024 8.672C86.1573 8.42133 86.224 8.13067 86.224 7.8ZM88.9182 4.08V10H88.1902V4.08H88.9182ZM90.391 10.048C90.2523 10.048 90.135 10 90.039 9.904C89.943 9.808 89.895 9.69067 89.895 9.552C89.895 9.41333 89.943 9.296 90.039 9.2C90.135 9.104 90.2523 9.056 90.391 9.056C90.5243 9.056 90.6363 9.104 90.727 9.2C90.823 9.296 90.871 9.41333 90.871 9.552C90.871 9.69067 90.823 9.808 90.727 9.904C90.6363 10 90.5243 10.048 90.391 10.048ZM92.2147 4.904C92.076 4.904 91.9587 4.856 91.8627 4.76C91.7667 4.664 91.7187 4.54667 91.7187 4.408C91.7187 4.26933 91.7667 4.152 91.8627 4.056C91.9587 3.96 92.076 3.912 92.2147 3.912C92.348 3.912 92.46 3.96 92.5507 4.056C92.6467 4.152 92.6947 4.26933 92.6947 4.408C92.6947 4.54667 92.6467 4.664 92.5507 4.76C92.46 4.856 92.348 4.904 92.2147 4.904ZM92.5667 5.616V10H91.8387V5.616H92.5667ZM95.7194 10.072C95.3087 10.072 94.9354 9.97867 94.5994 9.792C94.2687 9.60533 94.0074 9.34133 93.8154 9C93.6287 8.65333 93.5354 8.25333 93.5354 7.8C93.5354 7.352 93.6314 6.95733 93.8234 6.616C94.0207 6.26933 94.2874 6.00533 94.6234 5.824C94.9594 5.63733 95.3354 5.544 95.7514 5.544C96.1674 5.544 96.5434 5.63733 96.8794 5.824C97.2154 6.00533 97.4794 6.26667 97.6714 6.608C97.8687 6.94933 97.9674 7.34667 97.9674 7.8C97.9674 8.25333 97.8661 8.65333 97.6634 9C97.4661 9.34133 97.1967 9.60533 96.8554 9.792C96.5141 9.97867 96.1354 10.072 95.7194 10.072ZM95.7194 9.432C95.9807 9.432 96.2261 9.37067 96.4554 9.248C96.6847 9.12533 96.8687 8.94133 97.0074 8.696C97.1514 8.45067 97.2234 8.152 97.2234 7.8C97.2234 7.448 97.1541 7.14933 97.0154 6.904C96.8767 6.65867 96.6954 6.47733 96.4714 6.36C96.2474 6.23733 96.0047 6.176 95.7434 6.176C95.4767 6.176 95.2314 6.23733 95.0074 6.36C94.7887 6.47733 94.6127 6.65867 94.4794 6.904C94.3461 7.14933 94.2794 7.448 94.2794 7.8C94.2794 8.15733 94.3434 8.45867 94.4714 8.704C94.6047 8.94933 94.7807 9.13333 94.9994 9.256C95.2181 9.37333 95.4581 9.432 95.7194 9.432ZM101.969 10.848H101.241V3.64H101.969V10.848ZM105.31 9.416C105.988 8.872 106.518 8.42667 106.902 8.08C107.286 7.728 107.609 7.36267 107.87 6.984C108.137 6.6 108.27 6.224 108.27 5.856C108.27 5.50933 108.185 5.23733 108.014 5.04C107.849 4.83733 107.58 4.736 107.206 4.736C106.844 4.736 106.561 4.85067 106.358 5.08C106.161 5.304 106.054 5.60533 106.038 5.984H105.334C105.356 5.38667 105.537 4.92533 105.878 4.6C106.22 4.27467 106.66 4.112 107.198 4.112C107.748 4.112 108.182 4.264 108.502 4.568C108.828 4.872 108.99 5.29067 108.99 5.824C108.99 6.26667 108.857 6.69867 108.59 7.12C108.329 7.536 108.03 7.904 107.694 8.224C107.358 8.53867 106.929 8.90667 106.406 9.328H109.158V9.936H105.31V9.416ZM110 7.048C110 6.13067 110.149 5.416 110.448 4.904C110.747 4.38667 111.269 4.128 112.016 4.128C112.757 4.128 113.277 4.38667 113.576 4.904C113.875 5.416 114.024 6.13067 114.024 7.048C114.024 7.98133 113.875 8.70667 113.576 9.224C113.277 9.74133 112.757 10 112.016 10C111.269 10 110.747 9.74133 110.448 9.224C110.149 8.70667 110 7.98133 110 7.048ZM113.304 7.048C113.304 6.584 113.272 6.192 113.208 5.872C113.149 5.54667 113.024 5.28533 112.832 5.088C112.645 4.89067 112.373 4.792 112.016 4.792C111.653 4.792 111.376 4.89067 111.184 5.088C110.997 5.28533 110.872 5.54667 110.808 5.872C110.749 6.192 110.72 6.584 110.72 7.048C110.72 7.528 110.749 7.93067 110.808 8.256C110.872 8.58133 110.997 8.84267 111.184 9.04C111.376 9.23733 111.653 9.336 112.016 9.336C112.373 9.336 112.645 9.23733 112.832 9.04C113.024 8.84267 113.149 8.58133 113.208 8.256C113.272 7.93067 113.304 7.528 113.304 7.048ZM114.935 9.416C115.613 8.872 116.143 8.42667 116.527 8.08C116.911 7.728 117.234 7.36267 117.495 6.984C117.762 6.6 117.895 6.224 117.895 5.856C117.895 5.50933 117.81 5.23733 117.639 5.04C117.474 4.83733 117.205 4.736 116.831 4.736C116.469 4.736 116.186 4.85067 115.983 5.08C115.786 5.304 115.679 5.60533 115.663 5.984H114.959C114.981 5.38667 115.162 4.92533 115.503 4.6C115.845 4.27467 116.285 4.112 116.823 4.112C117.373 4.112 117.807 4.264 118.127 4.568C118.453 4.872 118.615 5.29067 118.615 5.824C118.615 6.26667 118.482 6.69867 118.215 7.12C117.954 7.536 117.655 7.904 117.319 8.224C116.983 8.53867 116.554 8.90667 116.031 9.328H118.783V9.936H114.935V9.416ZM123.313 4.848H120.505V6.672C120.628 6.50133 120.809 6.36267 121.049 6.256C121.289 6.144 121.548 6.088 121.825 6.088C122.268 6.088 122.628 6.18133 122.905 6.368C123.182 6.54933 123.38 6.78667 123.497 7.08C123.62 7.368 123.681 7.67467 123.681 8C123.681 8.384 123.609 8.728 123.465 9.032C123.321 9.336 123.1 9.576 122.801 9.752C122.508 9.928 122.142 10.016 121.705 10.016C121.145 10.016 120.692 9.872 120.345 9.584C119.998 9.296 119.788 8.912 119.713 8.432H120.425C120.494 8.736 120.641 8.97333 120.865 9.144C121.089 9.31467 121.372 9.4 121.713 9.4C122.134 9.4 122.452 9.27467 122.665 9.024C122.878 8.768 122.985 8.432 122.985 8.016C122.985 7.6 122.878 7.28 122.665 7.056C122.452 6.82667 122.137 6.712 121.721 6.712C121.438 6.712 121.19 6.78133 120.977 6.92C120.769 7.05333 120.617 7.23733 120.521 7.472H119.833V4.208H123.313V4.848Z" fill="#949494"/>
</svg>
