<svg width="75" height="75" viewBox="0 0 75 75" fill="none" xmlns="http://www.w3.org/2000/svg">
<circle cx="37.3105" cy="37.3105" r="37.3105" fill="white"/>
<mask id="mask0_8774_17084" style="mask-type:alpha" maskUnits="userSpaceOnUse" x="22" y="18" width="30" height="40">
<path d="M27.5274 47.2605V27.131C27.5274 25.5266 27.4085 24.3171 27.1643 23.5024C26.9265 22.6814 26.5196 22.0359 25.9499 21.5534C25.662 21.3215 25.3552 21.1335 25.0172 20.9956C24.6792 20.8515 24.1659 20.7136 23.471 20.5695C23.4022 20.5507 23.3146 20.5319 23.2144 20.5131C23.1142 20.4943 22.9452 20.4567 22.6948 20.4065C22.5133 20.3501 22.3568 20.2248 22.2128 20.018C22.0689 19.8112 22 19.5981 22 19.3662C22 19.0278 22.1189 18.752 22.3568 18.539C22.5947 18.3259 22.9139 18.2193 23.302 18.2193C23.4648 18.2193 23.59 18.2256 23.6901 18.2319C23.7903 18.2381 23.8967 18.257 24.0219 18.2695C24.1095 18.2883 24.241 18.3071 24.4225 18.3259C26.7324 18.5578 28.9797 18.6706 31.1706 18.6706C36.2035 18.6706 41.4867 18.5014 47.0329 18.1629C47.421 18.1441 47.7089 18.1253 47.8842 18.1065C48.1346 18.0877 48.4914 18.0689 48.9609 18.0376C49.4304 18.0125 49.7308 18 49.856 18C50.601 18 51.0204 18.4638 51.108 19.385V19.4101V19.4665L51.4836 25.1005C51.4836 25.3512 51.4898 25.5705 51.5086 25.7648C51.5274 25.9591 51.5524 26.1032 51.59 26.1909V26.3539C51.59 26.8364 51.5086 27.1623 51.3521 27.3253C51.1894 27.4945 50.8889 27.5822 50.4445 27.5822C50.1565 27.5822 49.9437 27.4945 49.806 27.3253C49.662 27.1561 49.5305 26.7612 49.4053 26.1408C49.4053 26.122 49.4053 26.0969 49.4053 26.0593C49.3365 25.5642 49.2426 25.1506 49.1362 24.831C48.6917 23.446 47.8592 22.4746 46.6323 21.9357C45.4053 21.3967 43.2207 21.1209 40.072 21.1209C38.1315 21.1209 36.9484 21.334 36.5102 21.7602C36.072 22.1863 35.8592 23.2643 35.8592 24.9877V32.2762C35.8592 33.4356 36.0219 34.1312 36.3412 34.3693C36.6604 34.6137 37.6933 34.7328 39.4335 34.7328C40.7668 34.7328 41.8498 34.5385 42.6886 34.1563C43.5211 33.774 44.1972 33.1661 44.7168 32.3263C44.8795 32.0443 45.0548 31.6307 45.2488 31.098C45.2864 31.0102 45.3114 30.935 45.3302 30.8849C45.5806 30.0451 46.0125 29.6315 46.6385 29.6315C46.9578 29.6315 47.1831 29.713 47.3208 29.8696C47.4523 30.0326 47.5211 30.3146 47.5211 30.722C47.5211 30.8473 47.5149 30.9601 47.5086 31.0541C47.5024 31.1544 47.4836 31.2547 47.4711 31.3612C47.4711 31.3988 47.4648 31.4427 47.446 31.4928C47.3584 32.7211 47.3146 33.868 47.3146 34.9334C47.3146 36.0364 47.3521 37.0955 47.4335 38.1107C47.5149 39.126 47.6338 40.0472 47.7966 40.887C47.8154 40.9935 47.8341 41.1251 47.8529 41.2881C47.8905 41.6453 47.9092 41.8772 47.9092 41.9837C47.9092 42.3597 47.8279 42.6355 47.6714 42.8109C47.5086 42.9864 47.2645 43.0804 46.9265 43.0804C46.3756 43.0804 46.0376 42.6355 45.9124 41.7456C45.8936 41.708 45.8873 41.6829 45.8873 41.6641C45.8498 41.3257 45.7997 41.0186 45.7246 40.7428C45.6557 40.4671 45.5618 40.2039 45.4554 39.9532C44.9922 39.0257 44.2786 38.3677 43.3083 37.9791C42.338 37.5906 40.9233 37.39 39.0579 37.39C37.7621 37.39 36.9045 37.553 36.4977 37.8726C36.0908 38.1922 35.8842 39.0884 35.8842 40.5674V41.0499V48.821C35.8842 50.2812 36.0282 51.3278 36.3099 51.9607C36.5916 52.5937 37.0986 53.1577 37.831 53.6528C38.2379 53.9223 38.8764 54.1604 39.7528 54.3735L39.8341 54.3986C40.5978 54.5741 41.0986 54.7683 41.3427 54.9689C41.5806 55.1757 41.7058 55.4514 41.7058 55.8087C41.7058 56.1471 41.5869 56.4291 41.3427 56.661C41.1049 56.8928 40.8232 57.0056 40.5039 57.0056C40.1096 57.0056 39.7903 56.9994 39.5274 56.9806C39.2707 56.9618 39.0078 56.9367 38.7387 56.8991C38.651 56.8991 38.5133 56.8928 38.338 56.874C36.0282 56.6046 34.025 56.4729 32.3412 56.4729C30.8138 56.4729 28.9922 56.5732 26.8764 56.7675C26.4319 56.8051 26.1127 56.8302 25.9186 56.849C25.5806 56.9054 25.2739 56.943 24.9984 56.968C24.723 56.9931 24.4977 57.0056 24.3161 57.0056C24.0156 57.0056 23.7465 56.8866 23.5149 56.661C23.2833 56.4291 23.1706 56.1659 23.1706 55.8588C23.1706 55.5893 23.2645 55.3512 23.4523 55.1381C23.6401 54.925 24.0407 54.6743 24.6667 54.3923C25.1612 54.1604 25.5556 53.9411 25.8372 53.728C26.1189 53.5149 26.3631 53.2831 26.5571 53.0324C26.9327 52.5686 27.1894 51.9607 27.3333 51.2024C27.4585 50.4692 27.5274 49.1469 27.5274 47.2605Z" fill="#B21F28"/>
</mask>
<g mask="url(#mask0_8774_17084)">
<path d="M22 10.0742H54.4132L50.3616 45.7287L54.4132 57.6136H22V10.0742Z" fill="#B21F28"/>
</g>
</svg>
