<svg width="75" height="75" viewBox="0 0 75 75" fill="none" xmlns="http://www.w3.org/2000/svg">
<circle cx="37.31" cy="37.31" r="37.31" fill="#00EB5E"/>
<path d="M58.7738 37.102L56.709 30.7773L47.7461 33.6937C48.762 35.6437 49.4176 37.7903 49.6634 40.0679L58.7738 37.102Z" fill="white"/>
<path d="M47.7461 50.2254L56.7255 53.1421L58.7903 46.8171L49.6634 43.8516C49.4176 46.1292 48.7458 48.2754 47.7461 50.2254Z" fill="white"/>
<path d="M31.8376 55.2058C29.2977 55.2058 26.971 54.6159 24.8571 53.4525C22.7762 52.2891 21.1212 50.6998 19.8923 48.6842C18.6961 46.6359 18.0898 44.4074 18.0898 41.9662C18.0898 39.5246 18.6961 37.3288 19.8923 35.297C21.1376 33.2487 22.7926 31.6594 24.8571 30.4795C26.971 29.3161 29.2812 28.7266 31.8376 28.7266C34.3937 28.7266 36.6878 29.3161 38.7688 30.4795C40.8824 31.6429 42.5374 33.2487 43.7334 35.297C44.979 37.3453 45.5851 39.5573 45.5851 41.9662C45.5851 44.3748 44.9625 46.6524 43.7334 48.6842C42.5374 50.6833 40.8659 52.2726 38.7688 53.4525C36.6878 54.6159 34.3772 55.2058 31.8376 55.2058ZM26.5285 41.9662C26.5285 43.4737 27.0363 44.7354 28.036 45.784C29.0684 46.8164 30.3463 47.3406 31.8538 47.3406C33.3613 47.3406 34.6065 46.8164 35.6228 45.784C36.6548 44.7516 37.1791 43.4737 37.1791 41.9662C37.1791 40.4587 36.6548 39.197 35.6228 38.1481C34.623 37.116 33.3613 36.5914 31.8538 36.5914C30.3463 36.5914 29.0846 37.116 28.036 38.1481C27.0201 39.1805 26.5285 40.4587 26.5285 41.9662Z" fill="#00382E"/>
<path d="M25.4127 26.4466C27.7204 26.4466 29.591 24.5758 29.591 22.2682C29.591 19.9606 27.7204 18.0898 25.4127 18.0898C23.1051 18.0898 21.2344 19.9606 21.2344 22.2682C21.2344 24.5758 23.1051 26.4466 25.4127 26.4466Z" fill="#00382E"/>
<path d="M38.2761 26.4466C40.5834 26.4466 42.4545 24.5758 42.4545 22.2682C42.4545 19.9606 40.5834 18.0898 38.2761 18.0898C35.9683 18.0898 34.0977 19.9606 34.0977 22.2682C34.0977 24.5758 35.9683 26.4466 38.2761 26.4466Z" fill="#00382E"/>
</svg>
